<svg width="1130" height="640" viewBox="0 0 1130 640" fill="none" xmlns="http://www.w3.org/2000/svg">
<path fill-rule="evenodd" clip-rule="evenodd" d="M810 487.122C902.299 487.122 977.122 412.299 977.122 320C977.122 227.701 902.299 152.878 810 152.878C717.701 152.878 642.878 227.701 642.878 320C642.878 412.299 717.701 487.122 810 487.122ZM810 640C986.731 640 1130 496.731 1130 320C1130 143.269 986.731 0 810 0C633.269 0 490 143.269 490 320C490 496.731 633.269 640 810 640Z" fill="url(#paint0_linear_503_13)"/>
<path fill-rule="evenodd" clip-rule="evenodd" d="M320.03 487.122C412.328 487.122 487.151 412.299 487.151 320C487.151 227.701 412.328 152.878 320.03 152.878C227.731 152.878 152.908 227.701 152.908 320C152.908 412.299 227.731 487.122 320.03 487.122ZM320.03 640C496.761 640 640.03 496.731 640.03 320C640.03 143.269 496.761 0 320.03 0C143.299 0 0.0296783 143.269 0.0296783 320C0.0296783 496.731 143.299 640 320.03 640Z" fill="url(#paint1_linear_503_13)"/>
<defs>
<linearGradient id="paint0_linear_503_13" x1="-136.039" y1="-8.53783" x2="215.999" y2="985.618" gradientUnits="userSpaceOnUse">
<stop stop-color="#CE44FF"/>
<stop offset="0.5365" stop-color="#A4E9FF"/>
<stop offset="1" stop-color="#49BDFF"/>
</linearGradient>
<linearGradient id="paint1_linear_503_13" x1="-136.039" y1="-8.53783" x2="215.999" y2="985.618" gradientUnits="userSpaceOnUse">
<stop stop-color="#CE44FF"/>
<stop offset="0.5365" stop-color="#A4E9FF"/>
<stop offset="1" stop-color="#49BDFF"/>
</linearGradient>
</defs>
</svg>
