<svg width="1134" height="642" viewBox="0 0 1134 642" fill="none" xmlns="http://www.w3.org/2000/svg">
<path fill-rule="evenodd" clip-rule="evenodd" d="M812.859 488.644C905.487 488.644 980.576 413.587 980.576 321C980.576 228.413 905.487 153.356 812.859 153.356C720.231 153.356 645.141 228.413 645.141 321C645.141 413.587 720.231 488.644 812.859 488.644ZM812.859 642C990.22 642 1134 498.283 1134 321C1134 143.717 990.22 0 812.859 0C635.497 0 491.718 143.717 491.718 321C491.718 498.283 635.497 642 812.859 642Z" fill="url(#paint0_linear_102_2742)"/>
<path fill-rule="evenodd" clip-rule="evenodd" d="M321.141 488.644C413.769 488.644 488.859 413.587 488.859 321C488.859 228.413 413.769 153.356 321.141 153.356C228.513 153.356 153.424 228.413 153.424 321C153.424 413.587 228.513 488.644 321.141 488.644ZM321.141 642C498.503 642 642.282 498.283 642.282 321C642.282 143.717 498.503 0 321.141 0C143.78 0 0 143.717 0 321C0 498.283 143.78 642 321.141 642Z" fill="url(#paint1_linear_102_2742)"/>
<defs>
<linearGradient id="paint0_linear_102_2742" x1="1056.59" y1="687.211" x2="510.171" y2="-184.252" gradientUnits="userSpaceOnUse">
<stop stop-color="#FF782D"/>
<stop offset="0.494792" stop-color="#FF5ADB"/>
<stop offset="1" stop-color="#648FFF"/>
</linearGradient>
<linearGradient id="paint1_linear_102_2742" x1="1056.59" y1="687.211" x2="510.171" y2="-184.252" gradientUnits="userSpaceOnUse">
<stop stop-color="#FF782D"/>
<stop offset="0.494792" stop-color="#FF5ADB"/>
<stop offset="1" stop-color="#648FFF"/>
</linearGradient>
</defs>
</svg>
